<svg width="108" height="60" viewBox="0 0 108 60" fill="none" xmlns="http://www.w3.org/2000/svg">
<g clip-path="url(#clip0_4207_285)">
<path d="M0 58.8436V0L28.42 36.0012L11.368 24.0008V58.8456C11.368 59.484 10.85 60.002 10.2116 60.002H1.15638C0.518025 60.002 0 59.484 0 58.8456V58.8436Z" fill="#15286D"/>
<path d="M34.1068 42.0008L62.5267 18L34.1068 59.9994L17.0527 36.0006L34.1068 42.0008Z" fill="#15286D"/>
<path d="M39.7891 30.001L48.52 14.6416C53.6636 5.59026 63.2715 0 73.6809 0H107.999L96.6311 12.0004L78.0107 8.07029C71.8271 6.76502 65.3844 8.38642 60.557 12.4634L39.7891 30.001Z" fill="#15286D"/>
<path d="M71.0528 12L82.4208 15.0001V58.8452C82.4208 59.4836 81.9028 60.0016 81.2644 60.0016H72.2072C71.5688 60.0016 71.0508 59.4836 71.0508 58.8452V12H71.0528Z" fill="#15286D"/>
</g>
<defs>
<clipPath id="clip0_4207_285">
<rect width="108" height="60" fill="white"/>
</clipPath>
</defs>
</svg>
