<svg width="432" height="432" viewBox="0 0 432 432" fill="none" xmlns="http://www.w3.org/2000/svg">
<g clip-path="url(#clip0_1078_7344)">
<path fill-rule="evenodd" clip-rule="evenodd" d="M184.938 228.999C182.03 228.999 179.523 228.658 177.485 227.99C175.478 227.329 173.829 226.432 172.584 225.324C171.387 224.275 170.463 222.95 169.891 221.465C169.309 219.905 169.017 218.252 169.03 216.588C169.017 214.923 169.309 213.269 169.891 211.71C170.464 210.225 171.388 208.901 172.585 207.853C173.827 206.745 175.479 205.847 177.486 205.187C179.523 204.515 182.03 204.178 184.939 204.178H196.179C199.086 204.178 201.594 204.518 203.632 205.187C205.639 205.847 207.288 206.745 208.534 207.853C209.73 208.901 210.654 210.225 211.226 211.71C211.811 213.269 212.105 214.922 212.092 216.588C212.104 218.253 211.81 219.906 211.224 221.465C210.653 222.95 209.729 224.274 208.532 225.323C207.29 226.431 205.638 227.327 203.63 227.989C201.594 228.659 199.086 228.998 196.177 228.998L184.938 228.999ZM185.016 208.158C182.944 208.158 181.201 208.366 179.837 208.779C178.427 209.203 177.275 209.805 176.415 210.564C175.555 211.312 174.911 212.277 174.552 213.358C174.217 214.402 174.05 215.492 174.057 216.588C174.05 217.684 174.217 218.774 174.552 219.817C174.911 220.899 175.555 221.864 176.415 222.611C177.276 223.373 178.427 223.975 179.837 224.397C181.2 224.807 182.93 225.018 184.978 225.018H196.141C198.19 225.018 199.92 224.81 201.283 224.397C202.692 223.973 203.845 223.371 204.705 222.611C205.565 221.864 206.209 220.899 206.568 219.817C206.904 218.774 207.071 217.684 207.064 216.588C207.071 215.492 206.904 214.402 206.568 213.358C206.209 212.277 205.565 211.311 204.705 210.564C203.844 209.802 202.693 209.201 201.283 208.779C199.918 208.368 198.189 208.158 196.141 208.158H185.016Z" fill="#000003"/>
<path fill-rule="evenodd" clip-rule="evenodd" d="M124.492 229L126.65 226.243C126.832 226.065 128.107 224.875 129.818 224.875H153.466C154.32 224.875 155.013 224.802 155.572 224.65C156.188 224.484 156.659 224.257 157.016 223.958C157.401 223.643 157.678 223.217 157.81 222.738C157.908 222.38 157.958 222.011 157.959 221.641C157.96 221.259 157.908 220.88 157.803 220.513C157.667 220.046 157.393 219.632 157.015 219.324C156.658 219.024 156.185 218.797 155.57 218.63C155.009 218.479 154.32 218.406 153.464 218.406H133.381C131.609 218.406 130.098 218.216 128.89 217.841C127.721 217.478 126.764 216.975 126.046 216.343C125.362 215.758 124.833 215.013 124.505 214.175C124.162 213.274 123.991 212.316 124 211.351C123.994 210.399 124.165 209.455 124.505 208.565C124.833 207.726 125.362 206.981 126.047 206.396C126.766 205.765 127.727 205.255 128.898 204.879C130.103 204.491 131.616 204.297 133.381 204.297H162.507L160.489 206.872C160.399 206.98 159.124 208.425 156.904 208.425H133.536C132.682 208.425 131.991 208.499 131.431 208.65C130.801 208.813 130.321 209.055 129.96 209.378C129.595 209.693 129.329 210.105 129.193 210.567C129.091 210.92 129.038 211.286 129.037 211.653C129.037 212.035 129.089 212.414 129.193 212.781C129.33 213.248 129.605 213.663 129.982 213.97C130.338 214.27 130.811 214.497 131.428 214.663C131.987 214.814 132.676 214.888 133.533 214.888H153.618C155.367 214.888 156.872 215.078 158.092 215.454C159.274 215.817 160.236 216.32 160.952 216.949C161.637 217.534 162.167 218.279 162.494 219.118C162.837 220.02 163.008 220.977 162.999 221.942C163.006 222.894 162.834 223.839 162.494 224.729C162.168 225.568 161.639 226.314 160.955 226.9C160.236 227.53 159.271 228.041 158.082 228.417C156.863 228.805 155.365 229 153.617 229L124.492 229Z" fill="#000003"/>
<path d="M217.551 228.995C217.337 228.983 217.123 228.97 216.909 228.964C216.772 228.959 216.638 228.964 216.459 228.964C216.591 228.788 216.7 228.642 216.812 228.498C221.097 223.022 225.381 217.544 229.662 212.064C231.255 210.028 232.853 207.994 234.427 205.942C235.132 204.999 236.172 204.363 237.333 204.163C238.553 203.936 239.805 203.946 241.022 204.192C241.631 204.312 242.089 204.635 242.497 205.075C243.404 206.044 244.152 207.133 244.942 208.195C246.106 209.756 247.287 211.3 248.466 212.852C250.889 216.044 253.312 219.235 255.736 222.425C257.327 224.514 258.932 226.59 260.529 228.675C260.568 228.726 260.606 228.778 260.659 228.854H231.349C231.371 228.804 231.397 228.756 231.426 228.71C232.011 227.94 232.607 227.177 233.182 226.402C233.533 225.933 234.015 225.704 234.566 225.608C234.857 225.557 235.153 225.531 235.449 225.531C241.102 225.524 246.755 225.522 252.408 225.522H252.651L238.632 207.372C238.522 207.506 238.418 207.623 238.322 207.747C235.329 211.588 232.339 215.429 229.352 219.272C227.133 222.136 224.924 225.011 222.726 227.896C222.265 228.497 221.71 228.922 220.923 228.971C220.907 228.971 220.892 228.99 220.874 229H217.551V228.995Z" fill="black"/>
<path d="M287.68 214.908L309 228.985C308.885 228.992 308.823 228.999 308.761 228.999L302.594 228.985C302.331 228.985 302.066 228.968 301.804 228.974C301.541 228.98 301.342 228.875 301.142 228.749C300.648 228.439 300.156 228.12 299.667 227.792L287.012 219.373C286.459 219.005 285.912 218.627 285.358 218.261C284.837 217.917 284.271 217.694 283.637 217.709C283.039 217.725 282.516 217.963 282.015 218.267C279.413 219.854 276.812 221.438 274.21 223.02C274.002 223.144 273.8 223.279 273.606 223.426C272.922 223.951 272.596 224.654 272.596 225.511C272.596 226.59 272.596 227.669 272.596 228.748V228.98H267.998V204.273H272.603V217.654C272.603 218.493 273.301 219.029 274.112 218.806C274.218 218.771 274.318 218.721 274.41 218.658C280.11 215.095 285.811 211.533 291.515 207.971C293.218 206.908 294.93 205.862 296.634 204.805C297.227 204.431 297.916 204.236 298.617 204.244C300.661 204.258 302.702 204.249 304.745 204.249H304.961L304.983 204.293L287.68 214.908Z" fill="black"/>
</g>
<defs>
<clipPath id="clip0_1078_7344">
<rect width="185" height="25" fill="white" transform="translate(124 204)"/>
</clipPath>
</defs>
</svg>
